<?xml version="1.0" standalone="no"?>
<!DOCTYPE svg PUBLIC "-//W3C//DTD SVG 20010904//EN"
 "http://www.w3.org/TR/2001/REC-SVG-20010904/DTD/svg10.dtd">
<svg version="1.0" xmlns="http://www.w3.org/2000/svg"
 width="1920.000000pt" height="2512.000000pt" viewBox="0 0 1920.000000 2512.000000"
 preserveAspectRatio="xMidYMid meet">

<g transform="translate(0.000000,2512.000000) scale(0.100000,-0.100000)"
fill="#000000" stroke="none">
<path d="M7146 22950 c-58 -29 -71 -45 -90 -101 -18 -58 -20 -99 -7 -143 6
-17 19 -65 29 -106 11 -41 26 -91 33 -110 28 -79 204 -425 259 -510 6 -8 13
-22 17 -30 4 -8 9 -17 13 -20 3 -3 21 -32 39 -64 18 -33 39 -66 46 -73 8 -7
27 -37 44 -66 17 -29 40 -62 51 -72 11 -10 20 -29 20 -42 0 -12 4 -23 9 -23 5
0 31 -35 57 -77 26 -43 54 -84 61 -91 7 -7 13 -18 13 -23 0 -5 8 -17 18 -27 9
-10 23 -27 30 -38 67 -102 85 -132 93 -151 5 -13 12 -23 16 -23 5 0 22 -23 38
-51 17 -28 42 -66 58 -86 15 -20 27 -41 27 -47 0 -6 11 -23 24 -37 13 -14 32
-41 41 -60 10 -19 38 -65 63 -103 43 -67 112 -206 112 -228 0 -6 6 -19 14 -27
7 -9 39 -86 70 -171 32 -85 62 -166 68 -180 5 -14 25 -79 44 -145 19 -66 39
-129 44 -140 5 -11 14 -59 21 -107 12 -87 12 -87 -12 -107 -27 -23 -39 -26
-39 -11 0 6 7 10 16 10 11 0 14 6 8 23 -14 47 -21 51 -29 18 -6 -28 -10 -32
-28 -25 -29 10 -92 10 -253 -1 -127 -8 -132 -7 -153 14 -23 23 -41 20 -41 -5
0 -8 7 -14 15 -14 9 0 15 -9 15 -24 0 -36 -18 -42 -26 -9 -4 15 -13 34 -21 41
-7 7 -13 20 -13 28 0 8 -20 56 -44 107 -24 50 -46 105 -50 122 -4 16 -19 54
-33 85 -35 78 -38 87 -62 163 -12 37 -21 76 -21 86 0 10 -7 24 -15 31 -8 7
-15 19 -15 27 0 8 -8 28 -17 46 -9 18 -22 55 -29 82 -14 56 -117 354 -133 384
-6 11 -11 28 -11 38 0 10 -8 34 -19 53 -10 19 -22 46 -26 60 -8 28 -69 164
-87 195 -6 11 -79 153 -161 315 -143 283 -189 370 -229 435 l-18 30 0 -28 c0
-16 25 -102 55 -193 30 -90 62 -190 70 -221 8 -32 35 -130 60 -218 59 -206
110 -394 139 -520 13 -55 33 -136 44 -180 11 -44 31 -136 45 -205 27 -130 51
-252 117 -605 5 -27 16 -102 25 -165 9 -63 21 -140 28 -170 6 -30 14 -230 18
-445 5 -263 12 -429 23 -510 9 -66 21 -164 26 -219 6 -54 20 -130 31 -170 33
-116 42 -333 64 -1511 2 -129 12 -240 30 -340 8 -44 21 -130 29 -190 10 -80
26 -142 56 -225 24 -63 47 -120 52 -127 6 -7 7 -17 3 -22 -3 -6 -1 -19 4 -29
7 -12 7 -22 0 -29 -6 -6 -6 -50 -1 -119 5 -60 5 -122 0 -139 -5 -16 -11 -111
-13 -210 -5 -180 -13 -359 -20 -425 -1 -19 -6 -91 -9 -160 -4 -69 -9 -154 -12
-190 -2 -36 -9 -168 -14 -293 -5 -125 -12 -231 -14 -236 -3 -5 -11 -64 -17
-132 -17 -200 -93 -531 -142 -625 -9 -18 -19 -69 -23 -115 -4 -46 -15 -102
-25 -124 -9 -22 -21 -60 -24 -85 -4 -25 -15 -61 -25 -80 -10 -20 -25 -60 -33
-90 -9 -30 -27 -86 -42 -125 -14 -38 -35 -99 -47 -135 -11 -36 -24 -69 -29
-74 -5 -6 -9 -18 -9 -27 0 -16 -35 -100 -80 -194 -11 -22 -25 -56 -33 -75 -30
-82 -67 -126 -137 -159 -80 -39 -153 -43 -270 -16 -41 9 -91 20 -110 25 -37 8
-102 36 -157 69 -83 48 -235 191 -315 298 -62 81 -138 192 -138 200 0 3 -6 14
-14 22 -8 9 -27 41 -44 71 -16 30 -44 80 -61 110 -43 76 -211 423 -211 436 0
2 -10 26 -21 52 -64 140 -85 189 -119 267 -4 11 -32 74 -60 140 -29 66 -55
127 -58 135 -3 8 -27 62 -54 119 -26 57 -48 105 -48 108 0 7 -20 50 -98 213
-122 256 -203 412 -279 535 -87 142 -143 228 -172 267 -20 26 -49 64 -64 85
-55 74 -212 257 -307 357 -114 121 -190 189 -263 239 -40 27 -92 67 -117 88
-25 22 -87 70 -137 108 -89 66 -195 152 -239 195 -50 48 -347 276 -360 276 -3
0 -19 11 -36 25 -16 14 -35 25 -42 25 -7 0 -21 9 -33 19 -11 11 -38 29 -59 40
-21 12 -59 33 -84 48 -84 48 -475 243 -488 243 -8 0 -26 8 -40 19 -15 10 -43
22 -62 26 -19 4 -55 18 -80 30 -69 35 -146 62 -252 90 -54 14 -124 34 -155 45
-138 46 -571 139 -743 159 -116 13 -490 25 -529 16 -39 -8 -51 -44 -27 -80 18
-27 112 -117 130 -125 25 -10 66 -48 66 -61 0 -21 129 -206 184 -262 28 -29
80 -87 116 -127 36 -41 77 -88 92 -104 16 -16 28 -32 28 -35 0 -4 19 -27 42
-52 24 -25 66 -74 93 -108 28 -34 74 -87 103 -117 28 -30 52 -59 52 -63 0 -4
11 -20 24 -34 13 -14 30 -35 38 -45 7 -10 29 -39 50 -63 20 -24 81 -100 135
-170 54 -69 111 -138 126 -154 15 -17 27 -33 27 -37 0 -4 18 -26 40 -50 22
-24 40 -47 40 -51 0 -4 24 -36 53 -71 46 -56 90 -115 122 -164 10 -16 169
-239 182 -257 49 -64 63 -85 63 -90 0 -4 16 -28 36 -53 55 -73 182 -268 220
-339 10 -18 21 -33 26 -33 4 0 8 -4 8 -10 0 -5 29 -54 65 -109 36 -54 65 -102
65 -107 0 -4 25 -44 55 -89 30 -45 55 -85 55 -88 0 -3 16 -34 36 -69 145 -253
356 -657 424 -813 13 -27 38 -84 57 -125 89 -192 238 -552 280 -675 13 -38 28
-79 33 -90 5 -11 24 -65 40 -120 17 -55 37 -116 45 -135 29 -76 123 -390 132
-445 3 -16 10 -35 15 -42 5 -7 7 -16 5 -21 -3 -4 3 -35 14 -67 11 -33 24 -82
29 -110 5 -27 17 -79 25 -115 9 -36 21 -87 26 -115 5 -27 13 -70 18 -95 19
-91 50 -278 66 -395 9 -66 21 -149 27 -185 26 -167 46 -453 53 -795 8 -356
-23 -1017 -54 -1140 -6 -22 -11 -66 -11 -97 0 -31 -5 -69 -10 -84 -6 -14 -15
-67 -21 -118 -17 -141 -26 -196 -44 -266 -9 -36 -23 -96 -30 -135 -8 -38 -21
-104 -30 -145 -9 -41 -21 -93 -26 -115 -13 -63 -36 -154 -59 -235 -12 -41 -28
-100 -36 -130 -31 -123 -56 -207 -74 -250 -10 -25 -23 -71 -30 -103 -6 -33
-18 -75 -27 -94 -8 -20 -21 -74 -29 -121 -8 -46 -21 -103 -29 -126 -8 -23 -19
-66 -26 -96 -6 -30 -17 -64 -23 -75 -7 -11 -18 -42 -25 -70 -7 -27 -21 -64
-32 -81 -10 -17 -19 -37 -19 -44 0 -11 -40 -108 -80 -195 -11 -22 -32 -71 -48
-110 -17 -38 -51 -118 -76 -177 -25 -59 -46 -112 -46 -118 0 -6 -9 -28 -19
-48 -40 -75 -81 -171 -81 -189 0 -10 -11 -40 -25 -68 -13 -27 -25 -60 -25 -73
0 -13 -6 -35 -14 -50 -40 -77 -148 -463 -167 -593 -5 -36 -18 -101 -29 -144
-13 -52 -20 -111 -20 -175 0 -124 15 -141 91 -103 36 18 131 80 139 92 3 4 19
16 36 26 87 55 373 323 479 450 28 33 53 62 56 65 12 12 136 167 151 191 9 14
23 32 30 40 22 23 98 138 98 149 0 5 5 10 10 10 6 0 14 8 18 18 9 23 114 195
122 202 6 5 33 56 99 185 13 28 28 52 33 53 4 2 8 13 8 24 0 10 7 26 15 34 8
9 15 24 15 35 0 10 5 19 10 19 6 0 10 8 10 18 0 25 41 72 47 55 3 -7 11 -13
19 -13 17 0 17 2 3 34 -10 20 -8 37 5 83 19 63 37 105 48 113 4 3 11 24 16 45
l9 40 7 -34 c7 -26 5 -36 -8 -43 -10 -6 -16 -22 -16 -43 0 -19 -4 -37 -10 -40
-12 -8 -13 -62 -1 -69 5 -3 12 -23 17 -43 l8 -38 6 49 c6 59 26 71 38 24 l8
-33 7 33 c8 39 20 41 34 4 l11 -27 1 25 c1 15 -4 31 -10 37 -17 17 -1 56 21
50 13 -3 20 2 25 21 4 16 2 28 -4 30 -6 2 -11 8 -11 14 0 6 6 6 15 -2 12 -10
16 -8 25 15 5 14 10 33 10 40 0 8 8 20 18 27 11 7 22 31 26 53 4 22 15 63 25
90 28 75 79 245 86 284 3 19 9 39 13 45 4 6 12 34 18 61 6 28 26 104 44 170
17 66 38 152 46 190 8 39 22 99 30 135 9 36 24 120 34 188 10 68 23 129 28
135 5 7 17 59 27 116 9 58 21 116 27 130 5 14 16 60 24 101 9 41 22 95 30 120
7 25 26 94 40 155 15 60 42 150 61 200 19 49 41 110 48 135 8 25 26 67 40 94
14 27 25 57 25 67 0 10 8 26 19 36 10 10 22 34 26 53 4 19 15 44 25 55 9 11
20 32 24 48 4 15 14 35 24 45 15 15 64 91 82 127 32 63 155 209 251 296 44 41
94 87 111 103 l30 28 167 -6 c128 -5 193 -3 286 9 200 28 222 29 261 10 55
-26 59 -36 153 -390 4 -17 13 -39 18 -50 6 -11 16 -47 22 -80 7 -33 20 -80 31
-105 25 -61 58 -164 74 -230 7 -30 23 -80 34 -110 11 -30 24 -71 27 -90 4 -19
13 -42 20 -50 7 -8 19 -42 28 -75 21 -81 79 -236 138 -370 26 -60 51 -125 54
-143 4 -18 18 -52 31 -75 13 -23 24 -48 24 -55 0 -8 9 -26 19 -41 11 -15 23
-40 27 -57 4 -16 18 -42 31 -57 13 -16 46 -77 74 -135 122 -255 188 -382 218
-422 10 -14 22 -37 26 -50 4 -14 18 -38 31 -53 13 -16 24 -37 24 -48 0 -10 4
-19 8 -19 5 0 17 -17 28 -38 10 -20 29 -50 40 -67 37 -51 134 -215 134 -226 0
-10 47 -78 62 -89 3 -3 9 -17 13 -32 4 -15 13 -29 20 -32 8 -3 22 -20 31 -38
9 -18 25 -39 35 -46 11 -7 19 -19 19 -27 0 -8 8 -19 19 -24 10 -6 24 -24 31
-41 7 -16 15 -30 19 -30 4 0 14 -13 24 -29 13 -22 22 -28 40 -24 15 3 18 2 9
-5 -10 -7 -8 -18 10 -54 13 -25 28 -43 35 -41 12 4 63 -56 63 -75 0 -7 5 -12
10 -12 6 0 10 -6 10 -14 0 -8 11 -28 25 -44 14 -17 25 -35 25 -41 0 -14 37
-15 45 -1 8 13 25 13 25 1 0 -6 13 -29 29 -53 16 -24 32 -54 36 -67 5 -17 10
-20 18 -12 6 6 19 11 30 11 15 0 18 -6 14 -27 -2 -16 -2 -22 0 -15 3 6 11 12
19 12 18 0 32 -32 16 -38 -17 -5 -15 -32 2 -32 8 0 18 5 21 10 11 17 22 11 27
-14 3 -14 0 -30 -6 -37 -8 -8 -5 -10 11 -4 18 5 25 1 32 -18 6 -14 19 -28 29
-31 11 -4 27 -15 37 -26 10 -11 27 -20 38 -20 15 0 18 -5 14 -21 -5 -19 -2
-21 23 -15 23 4 32 1 40 -14 6 -11 8 -20 4 -20 -11 0 70 -80 81 -80 6 0 28
-17 51 -38 52 -47 100 -82 114 -82 6 0 13 -7 16 -15 4 -8 10 -15 16 -15 5 0
36 -18 68 -40 32 -22 63 -40 69 -40 6 0 25 -13 43 -29 18 -15 43 -31 55 -35
11 -4 27 -13 33 -21 7 -8 21 -15 32 -15 10 0 21 -7 24 -15 4 -8 17 -15 31 -15
21 0 23 -2 13 -15 -10 -12 -7 -15 17 -21 32 -8 150 -69 174 -90 8 -8 22 -14
30 -14 8 0 20 -5 27 -12 6 -6 26 -17 44 -24 145 -54 288 -132 288 -156 0 -6
-6 -16 -14 -22 -8 -6 -28 -45 -44 -86 -65 -160 -91 -220 -155 -350 -36 -74
-65 -146 -65 -160 0 -14 -1 -106 -2 -205 -1 -138 2 -194 15 -242 33 -129 73
-202 170 -313 204 -232 234 -272 272 -350 36 -73 52 -135 53 -196 0 -46 -28
-162 -60 -244 -12 -30 -27 -71 -34 -90 -8 -19 -25 -55 -38 -80 -14 -25 -51
-94 -83 -155 -31 -60 -63 -117 -70 -125 -12 -13 -24 -40 -70 -145 -39 -89 -77
-165 -85 -170 -16 -10 -11 -51 8 -68 13 -12 31 -14 79 -10 41 4 60 9 57 17 -3
8 23 17 78 25 46 8 89 18 96 24 7 5 41 20 75 32 125 45 187 71 199 83 7 7 18
12 26 12 20 0 210 96 249 126 17 13 34 24 37 24 8 0 122 114 192 191 68 76
194 259 194 282 0 9 6 20 14 24 8 4 21 24 30 43 9 19 23 46 30 60 54 95 96
203 135 340 12 41 32 111 45 155 13 44 34 123 46 175 13 52 34 136 47 185 13
50 29 124 34 165 5 41 18 108 29 148 11 40 20 82 20 95 0 13 7 50 16 82 9 33
20 88 25 122 12 82 36 153 63 182 20 22 25 23 106 16 47 -3 195 -10 330 -15
248 -8 303 -15 343 -44 12 -9 38 -27 57 -41 19 -13 54 -39 77 -57 246 -194
330 -254 398 -287 22 -11 48 -28 57 -38 10 -10 30 -28 45 -40 16 -12 67 -54
115 -92 47 -38 105 -79 128 -90 49 -24 99 -59 218 -157 140 -115 243 -225 341
-363 51 -71 140 -231 154 -276 3 -11 13 -40 22 -65 21 -57 40 -128 54 -205 15
-81 40 -145 55 -139 7 3 18 21 25 42 8 20 18 43 24 50 26 33 89 228 127 397
l32 140 0 275 c-1 262 -3 282 -31 422 -29 148 -86 351 -123 443 -11 28 -24 69
-30 93 -5 23 -13 42 -18 42 -4 0 -17 22 -28 48 -11 26 -30 56 -41 66 -12 11
-21 22 -21 26 0 4 -18 27 -41 51 -72 77 -77 121 -21 167 20 17 66 50 102 73
36 24 104 71 151 106 48 35 91 63 97 63 6 0 15 6 19 13 4 7 19 20 33 29 33 21
131 118 200 198 30 35 62 70 70 79 22 23 111 155 138 204 13 23 36 65 51 92
28 49 80 153 123 245 22 49 96 261 122 351 9 31 23 69 31 85 8 16 15 36 15 44
0 8 7 29 16 45 29 55 74 199 89 280 13 79 20 110 49 235 40 174 57 268 76 410
11 85 27 182 36 215 8 32 17 116 20 185 4 69 12 147 20 174 15 52 18 114 8
141 -4 10 -20 -18 -46 -82 -58 -146 -171 -375 -240 -488 -114 -186 -298 -415
-441 -548 -202 -186 -502 -374 -753 -472 -159 -62 -159 -62 -239 -80 -291 -67
-317 -70 -660 -70 -331 0 -341 1 -595 61 -131 31 -175 45 -325 101 -137 52
-394 173 -442 209 -17 13 -34 24 -38 24 -13 0 -199 135 -280 204 -191 162
-305 280 -442 456 -46 59 -183 257 -183 264 0 2 -23 43 -51 92 -56 97 -159
315 -159 337 0 7 -4 17 -8 22 -5 6 -19 39 -31 75 -13 36 -27 74 -31 85 -15 37
-58 190 -91 320 l-32 130 6 280 c10 490 53 885 124 1150 21 79 73 223 92 255
43 74 83 128 111 155 32 30 32 30 25 105 -4 41 -12 84 -18 95 -6 11 -14 52
-18 90 -4 39 -12 104 -17 145 -6 41 -15 129 -21 195 -6 66 -16 163 -21 215 -6
52 -15 225 -21 385 -17 455 6 1046 57 1450 27 217 31 249 43 315 6 36 16 92
21 125 12 75 68 376 80 430 5 22 23 103 40 180 42 186 105 440 123 495 3 8 19
60 35 115 17 55 45 145 61 200 33 107 38 144 20 162 -18 18 -38 148 -45 290
-4 73 -11 133 -16 133 -4 0 -7 28 -7 63 l1 62 9 -59 c5 -33 13 -62 18 -65 4
-3 13 -31 19 -61 26 -140 97 -393 149 -535 74 -204 146 -367 214 -488 71 -125
112 -191 121 -195 5 -2 8 -8 8 -14 0 -6 16 -36 36 -66 136 -205 302 -385 422
-459 113 -70 292 -141 457 -183 214 -54 641 -49 955 11 30 6 89 17 130 24 41
7 109 21 150 30 41 9 93 21 115 25 22 5 105 24 185 44 80 20 179 43 220 52 41
9 83 20 92 25 10 5 30 9 45 9 16 0 44 5 63 11 19 6 64 15 100 20 36 4 110 15
165 23 55 9 152 20 215 26 63 6 148 15 188 20 97 13 592 12 707 -1 50 -5 126
-14 170 -19 123 -14 306 -50 358 -69 16 -6 42 -11 58 -11 16 0 37 -4 47 -10
50 -28 225 -90 256 -90 42 0 63 27 46 59 -5 11 -10 32 -10 48 0 15 -7 39 -15
53 -8 14 -21 41 -30 60 -8 19 -24 53 -35 75 -11 22 -26 56 -34 75 -15 36 -45
88 -110 195 -20 33 -36 69 -36 80 0 23 25 64 67 112 15 18 42 51 58 73 17 23
40 52 52 67 12 14 25 34 28 44 4 11 10 19 15 19 8 0 51 61 102 145 35 56 79
156 84 188 4 30 4 31 -6 7 -6 -13 -14 -27 -18 -30 -4 -3 -23 -35 -42 -72 -19
-37 -38 -68 -42 -68 -5 0 -8 -5 -8 -11 0 -11 -74 -108 -149 -194 -52 -60 -184
-175 -201 -175 -17 0 -150 139 -150 158 0 6 8 12 17 12 9 0 46 14 81 32 79 40
165 129 210 219 29 56 34 80 39 161 7 109 -5 175 -47 263 -55 116 -132 183
-274 240 -26 10 -72 15 -144 15 -99 0 -110 -2 -176 -34 -79 -37 -149 -92 -183
-140 -73 -108 -113 -216 -113 -305 0 -33 -3 -62 -8 -64 -4 -3 -25 4 -47 15
-178 87 -666 268 -725 268 -27 0 -43 26 -37 62 3 18 13 74 21 123 35 198 48
365 41 510 -12 238 -19 208 75 308 46 48 89 87 95 87 7 0 15 7 19 15 3 8 13
15 23 15 15 0 16 2 3 10 -25 16 -46 11 -60 -15 -22 -41 -55 -30 -66 22 -1 7 5
18 13 24 12 10 16 10 24 -2 7 -12 9 -12 9 0 0 8 3 11 7 8 7 -8 32 34 26 45 -2
5 -17 1 -34 -7 -33 -17 -41 -2 -9 17 11 7 20 16 20 21 0 4 16 23 35 43 21 21
35 44 35 60 0 13 7 27 15 30 8 4 15 10 15 15 0 33 -114 -33 -143 -82 -9 -16
-29 -35 -44 -41 -15 -7 -46 -29 -68 -50 -40 -37 -40 -37 -56 -17 -8 12 -24 46
-34 77 -33 101 -52 137 -94 186 -45 51 -107 145 -121 180 -11 30 -80 107 -254
284 -141 143 -223 212 -251 212 -7 0 -50 22 -96 48 -113 64 -242 125 -309 147
-30 9 -69 23 -87 31 -17 8 -50 14 -73 14 -22 0 -53 6 -69 14 -22 12 -50 13
-142 7 -173 -12 -277 -49 -496 -177 -18 -10 -33 -22 -33 -26 0 -5 -7 -8 -15
-8 -8 0 -34 -18 -56 -40 -25 -24 -51 -40 -65 -40 -13 0 -24 -5 -24 -10 0 -6
-28 -31 -62 -56 -35 -25 -71 -59 -81 -75 -10 -15 -28 -31 -40 -35 -53 -16
-379 -377 -462 -510 -69 -111 -109 -181 -139 -241 -55 -110 -126 -310 -126
-355 0 -11 -4 -27 -9 -36 -14 -27 -42 -212 -62 -407 -23 -236 18 -595 87 -752
8 -17 14 -36 14 -42 0 -6 18 -45 40 -87 44 -85 44 -84 30 -84 -5 0 -10 6 -10
14 0 8 -7 16 -15 20 -8 3 -15 10 -15 16 0 6 -33 55 -72 108 -89 119 -87 115
-143 232 -26 52 -57 115 -70 140 -13 25 -38 90 -55 145 -18 55 -36 109 -41
120 -8 21 -25 111 -40 210 -10 72 -13 297 -4 409 10 126 45 288 85 396 12 30
28 74 36 98 48 138 179 355 297 493 136 159 240 254 386 352 80 54 314 177
336 177 7 0 25 10 40 21 l27 22 -48 30 c-27 16 -62 36 -79 43 -54 23 -160 99
-163 116 -5 26 61 62 183 98 216 64 271 78 332 90 35 6 95 21 135 34 40 13 98
27 128 30 30 4 125 18 210 31 85 13 214 28 285 34 414 35 490 41 592 45 61 2
121 9 132 15 24 14 41 49 77 161 14 47 30 90 34 95 4 6 13 63 19 128 21 198
-11 321 -106 402 -31 26 -63 40 -138 60 -150 39 -341 35 -585 -10 -41 -8 -106
-17 -145 -21 -38 -3 -90 -14 -115 -24 -25 -10 -74 -21 -110 -25 -36 -4 -73
-11 -83 -17 -9 -5 -50 -17 -90 -28 -169 -45 -319 -89 -412 -121 -53 -19 -288
-98 -340 -114 -44 -14 -131 -52 -175 -76 -8 -5 -60 -31 -115 -58 -55 -26 -138
-71 -185 -99 -214 -128 -217 -129 -243 -110 -13 10 -20 37 -26 103 -5 50 -16
109 -25 133 -8 24 -18 66 -22 95 -4 29 -10 57 -15 63 -5 6 -17 46 -28 90 -40
158 -182 552 -223 614 -9 14 -19 36 -23 50 -4 14 -15 34 -25 45 -10 11 -23 37
-29 57 -7 20 -18 42 -26 48 -7 6 -17 24 -20 40 -3 16 -12 33 -19 39 -7 6 -21
30 -32 53 -10 24 -21 45 -24 48 -3 3 -27 43 -54 90 -27 47 -76 128 -110 180
-34 52 -66 102 -71 111 -24 40 -163 229 -175 239 -3 3 -22 27 -41 54 -18 28
-40 57 -47 65 -7 9 -26 32 -42 52 -17 20 -30 40 -30 44 0 4 -10 18 -22 31 -23
23 -45 50 -95 115 -16 19 -47 55 -69 80 -23 24 -65 73 -94 109 -59 73 -69 84
-211 228 -89 91 -119 115 -119 96 0 -9 51 -97 71 -123 10 -13 19 -32 19 -41 0
-10 7 -23 15 -30 8 -7 15 -28 15 -47 0 -26 5 -36 20 -40 11 -3 20 -13 20 -23
0 -28 39 -132 56 -152 15 -16 15 -20 1 -50 -11 -22 -17 -27 -17 -15 0 26 -32
78 -45 74 -5 -2 -13 -25 -17 -51 -4 -27 -9 -50 -12 -54 -3 -3 -22 -5 -41 -4
-28 1 -37 -4 -52 -28 -11 -19 -25 -30 -40 -30 -13 0 -23 -4 -23 -10 0 -5 -11
-10 -25 -10 -14 0 -25 -4 -25 -10 0 -5 -7 -10 -15 -10 -8 0 -15 -5 -15 -11 0
-8 -15 -9 -45 -5 -36 6 -45 4 -45 -7 0 -8 7 -17 15 -21 22 -8 18 -26 -5 -26
-11 0 -20 7 -20 15 0 9 -9 15 -21 15 -12 0 -23 8 -26 20 -3 11 -10 20 -15 20
-9 0 -71 49 -103 81 -66 66 -90 94 -104 118 -49 89 -93 161 -106 171 -8 7 -15
18 -15 25 0 7 -18 45 -40 85 -22 40 -40 75 -40 78 0 2 -33 73 -74 156 -41 83
-108 221 -150 306 -85 176 -90 184 -129 219 -87 79 -157 150 -157 160 0 11
-35 51 -45 51 -3 0 -1 -8 4 -18 11 -21 4 -36 -21 -45 -12 -4 -18 -17 -18 -36
0 -33 -26 -65 -46 -57 -18 7 -17 4 1 -41 8 -19 15 -45 15 -56 0 -20 -1 -20
-16 -5 -12 11 -18 38 -20 80 -1 35 -3 66 -3 71 -1 11 -29 8 -36 -4 -4 -6 1
-16 11 -24 11 -7 16 -17 11 -21 -4 -4 -7 -2 -7 4 0 7 -6 12 -12 12 -7 0 -25 7
-40 14 -24 13 -28 13 -28 0 0 -8 10 -14 25 -14 22 0 25 -4 25 -39 0 -21 6 -44
14 -50 7 -6 17 -30 20 -53 4 -23 16 -62 26 -86 11 -25 20 -66 20 -91 0 -26 4
-51 9 -56 5 -6 11 -37 12 -70 2 -47 0 -61 -12 -63 -15 -3 -56 68 -74 126 -4
13 -12 21 -18 19 -6 -2 -21 8 -33 22 -17 20 -19 29 -10 44 9 14 8 20 -6 28
-10 6 -18 21 -18 34 0 25 -30 85 -42 85 -5 0 -8 14 -8 30 0 19 -5 30 -14 30
-8 0 -16 6 -19 13 -2 6 -7 -10 -11 -38 -7 -44 -6 -51 13 -64 12 -7 21 -24 21
-38 0 -22 2 -24 15 -13 23 19 28 7 15 -39 -13 -48 -30 -63 -30 -26 0 15 -11
41 -25 59 -14 18 -25 40 -25 50 0 9 -7 19 -15 22 -8 4 -15 17 -15 30 0 13 -4
24 -10 24 -5 0 -10 7 -10 15 0 8 -7 15 -15 15 -9 0 -15 9 -15 25 0 14 -4 25
-10 25 -5 0 -17 15 -25 33 -14 30 -42 71 -83 124 -9 12 -24 32 -32 44 -8 13
-25 33 -37 46 -13 13 -23 28 -23 33 0 5 -6 13 -12 17 -7 4 -47 46 -88 93 -41
47 -101 112 -132 144 -32 33 -58 62 -58 66 0 9 -109 120 -119 120 -4 0 -19 16
-32 35 -13 19 -27 35 -31 35 -5 0 -8 7 -8 15 0 8 5 15 10 15 6 0 10 -7 10 -15
0 -8 5 -15 10 -15 6 0 13 7 16 15 4 8 10 15 15 15 14 0 11 -28 -3 -34 -10 -5
-10 -7 1 -12 7 -4 21 -15 29 -25 9 -11 27 -19 39 -19 17 0 23 -6 23 -22 0 -25
46 -78 68 -78 11 0 13 8 8 31 -3 17 -6 46 -7 63 0 17 -3 26 -5 20 -6 -15 -64
-4 -64 12 0 8 16 30 35 48 39 38 42 46 20 46 -9 0 -18 12 -21 30 -4 16 -17 36
-30 45 -23 15 -33 45 -15 45 15 0 41 -30 41 -46 0 -8 10 -14 23 -14 25 0 77
-51 95 -92 6 -16 16 -28 22 -28 17 0 11 24 -14 51 -13 14 -27 35 -30 47 -4 12
-12 22 -17 22 -5 0 -9 6 -9 14 0 8 -7 16 -15 19 -8 4 -26 25 -41 49 -26 42
-48 68 -126 151 -21 22 -38 43 -38 48 0 5 -5 9 -10 9 -6 0 -30 18 -53 41 -48
47 -152 129 -163 129 -4 0 -30 15 -58 33 -119 78 -276 128 -421 133 -96 4
-115 2 -149 -16z m919 -450 c3 -5 1 -10 -4 -10 -6 0 -11 5 -11 10 0 6 2 10 4
10 3 0 8 -4 11 -10z m29 -42 c-9 -30 -8 -30 -27 -22 -13 5 -14 9 -4 25 17 27
40 25 31 -3z m16 -180 c0 -14 -28 -9 -44 8 -23 22 -20 24 14 11 17 -6 30 -15
30 -19z m-165 12 c3 -5 -1 -10 -9 -10 -9 0 -16 5 -16 10 0 6 4 10 9 10 6 0 13
-4 16 -10z m-201 -193 c4 -19 3 -26 -4 -22 -5 3 -10 18 -10 32 0 32 5 28 14
-10z m45 -86 c-15 -5 -22 6 -14 19 6 9 10 9 16 -1 5 -8 4 -15 -2 -18z m31 -33
c0 -19 -2 -20 -10 -8 -13 19 -13 30 0 30 6 0 10 -10 10 -22z m30 -68 c0 -11
-4 -20 -10 -20 -5 0 -10 9 -10 20 0 11 5 20 10 20 6 0 10 -9 10 -20z m30 -72
c0 -5 -4 -8 -10 -8 -5 0 -10 10 -10 23 0 18 2 19 10 7 5 -8 10 -18 10 -22z
m44 -94 c8 -21 8 -24 -3 -24 -5 0 -11 9 -14 20 -6 24 8 27 17 4z m30 -50 c9
-23 7 -64 -3 -64 -9 0 -21 34 -21 63 0 21 16 22 24 1z m43 -106 c-3 -8 -6 -5
-6 6 -1 11 2 17 5 13 3 -3 4 -12 1 -19z m53 -88 c5 0 10 -12 10 -27 l-1 -28
-19 24 c-11 13 -20 35 -19 50 0 25 0 25 9 4 5 -13 14 -23 20 -23z m1060 -25
c0 -8 -4 -15 -10 -15 -5 0 -10 7 -10 15 0 8 5 15 10 15 6 0 10 -7 10 -15z
m-1005 -92 c16 -16 17 -48 1 -48 -4 0 -14 18 -22 40 -15 44 -18 84 -3 47 5
-13 16 -30 24 -39z m1065 28 c0 -5 9 -13 20 -16 11 -4 17 -11 14 -17 -5 -8
-31 -7 -94 2 -7 1 44 40 53 40 4 0 7 -4 7 -9z m-1010 -148 c0 -19 -28 -4 -35
18 -10 31 6 45 21 18 7 -13 13 -29 14 -36z m-97 27 c-3 -11 -7 -20 -9 -20 -2
0 -4 9 -4 20 0 11 4 20 9 20 5 0 7 -9 4 -20z m1237 -47 c-1 -24 -2 -26 -11
-10 -5 9 -7 22 -4 27 10 17 15 11 15 -17z m-1185 -12 c3 -5 1 -12 -5 -16 -5
-3 -10 1 -10 9 0 18 6 21 15 7z m922 -13 c-3 -8 -6 -5 -6 6 -1 11 2 17 5 13 3
-3 4 -12 1 -19z m-847 2 c0 -5 -2 -10 -4 -10 -3 0 -8 5 -11 10 -3 6 -1 10 4
10 6 0 11 -4 11 -10z m664 -133 c14 -30 26 -63 26 -73 0 -11 -10 0 -23 26 -12
25 -25 47 -29 48 -8 4 -11 52 -4 52 2 0 15 -24 30 -53z m183 1 c-3 -7 -5 -2
-5 12 0 14 2 19 5 13 2 -7 2 -19 0 -25z m-80 -220 c-3 -7 -5 -2 -5 12 0 14 2
19 5 13 2 -7 2 -19 0 -25z m4363 -3971 c0 -8 3 -8 11 0 13 13 49 -13 49 -34 0
-7 8 -13 17 -13 9 0 13 -3 10 -7 -10 -9 13 -33 32 -33 10 0 34 -16 55 -35 21
-19 47 -35 57 -35 20 0 25 -15 9 -25 -5 -3 -10 -11 -10 -17 0 -13 80 -2 95 13
5 5 22 9 38 9 16 0 54 7 85 16 45 13 88 16 219 12 107 -3 168 -9 175 -16 7 -7
29 -12 50 -12 21 0 55 -6 75 -14 21 -7 63 -21 93 -31 80 -26 163 -70 201 -105
19 -18 75 -59 124 -93 116 -78 292 -256 369 -371 59 -89 146 -255 146 -279 0
-7 4 -17 8 -22 5 -6 17 -37 27 -70 10 -33 21 -69 25 -80 36 -97 45 -175 44
-375 0 -187 -3 -214 -26 -306 -33 -128 -64 -203 -137 -335 -77 -139 -164 -253
-275 -362 -296 -290 -633 -421 -1035 -402 -241 11 -441 71 -671 204 -76 43
-119 78 -212 171 -64 65 -128 135 -142 156 -14 22 -40 59 -57 84 -88 124 -165
312 -215 520 -27 115 -24 451 5 575 12 50 26 108 31 130 22 98 121 321 163
365 9 11 17 21 17 24 0 25 206 276 226 276 3 0 20 14 37 31 l31 32 -31 -5
c-28 -4 -30 -2 -23 16 4 12 17 22 29 24 24 4 28 17 8 29 -8 4 -22 21 -32 36
-14 21 -15 31 -6 40 18 18 13 45 -10 52 -29 10 -16 18 39 25 39 4 48 9 50 28
3 16 -2 22 -17 22 -30 0 -35 19 -7 29 13 6 29 18 34 27 9 16 12 16 27 4 14
-11 22 -11 53 0 20 7 46 19 57 26 19 13 18 14 -7 14 -15 0 -29 -4 -33 -10 -9
-14 -35 0 -35 19 0 10 14 22 34 29 19 7 49 25 67 41 31 28 59 31 59 8z m-3702
-273 c147 -36 283 -84 310 -111 7 -7 19 -13 26 -13 14 0 166 -85 218 -122 129
-91 302 -254 334 -314 10 -19 22 -34 26 -34 9 0 118 -177 118 -193 0 -7 9 -28
19 -48 34 -64 46 -116 30 -135 -8 -9 -12 -28 -11 -41 2 -14 -3 -30 -11 -36
-22 -17 -41 -116 -26 -133 18 -21 4 -113 -21 -139 -18 -19 -20 -30 -14 -93 5
-51 4 -72 -5 -72 -6 0 -11 -15 -11 -35 0 -19 5 -35 10 -35 18 0 10 -32 -13
-54 -20 -18 -25 -36 -31 -104 -9 -111 -16 -142 -32 -142 -9 0 -14 -11 -14 -28
0 -18 -10 -38 -29 -56 -26 -25 -29 -34 -33 -117 -3 -68 -9 -95 -24 -116 -13
-19 -21 -47 -22 -83 -2 -42 -9 -64 -31 -95 -17 -24 -31 -60 -36 -90 -4 -27
-11 -52 -15 -55 -14 -9 -23 -60 -11 -60 6 0 11 -4 11 -10 0 -14 -27 -12 -33 3
-4 8 -6 6 -6 -4 -1 -9 -10 -26 -20 -38 -11 -12 -22 -40 -26 -62 -4 -23 -15
-45 -26 -52 -10 -6 -19 -18 -19 -25 0 -24 -30 -72 -45 -72 -15 0 -19 -19 -15
-72 1 -14 -3 -29 -9 -33 -6 -3 -11 -14 -11 -23 0 -10 -10 -22 -22 -27 -13 -6
-24 -20 -26 -32 -2 -12 -10 -27 -18 -33 -8 -7 -14 -19 -14 -26 0 -8 -16 -46
-35 -83 -29 -58 -38 -68 -55 -64 -15 4 -20 0 -20 -13 0 -37 -21 -94 -34 -94
-8 0 -16 -9 -19 -20 -3 -13 -11 -18 -20 -14 -20 7 -33 -16 -16 -27 12 -8 11
-12 -3 -23 -10 -7 -18 -20 -18 -29 0 -8 -7 -18 -15 -21 -9 -3 -21 -19 -26 -36
-6 -16 -15 -30 -21 -30 -5 0 -8 -12 -7 -27 4 -48 0 -61 -22 -66 -11 -3 -23
-15 -26 -26 -4 -15 -13 -21 -35 -21 -28 0 -30 -2 -26 -31 3 -21 -1 -34 -12
-42 -9 -7 -23 -24 -31 -38 -29 -53 -70 -110 -84 -116 -11 -3 -15 -21 -15 -58
0 -40 -5 -58 -23 -78 -12 -15 -28 -27 -35 -27 -7 0 -12 -9 -12 -20 0 -11 -6
-20 -12 -20 -19 0 -47 -56 -41 -79 4 -15 1 -21 -11 -21 -9 0 -22 -11 -28 -25
-6 -14 -16 -25 -22 -25 -13 0 -46 -35 -46 -49 0 -5 -10 -12 -22 -16 -14 -4
-18 -8 -10 -12 22 -9 12 -29 -23 -46 -28 -13 -35 -22 -35 -46 0 -28 -21 -61
-39 -61 -11 0 -31 -47 -31 -70 0 -11 -4 -20 -10 -20 -5 0 -10 7 -10 15 0 8 -5
15 -11 15 -8 0 -9 -11 -5 -32 4 -18 1 -55 -6 -81 -11 -45 -14 -48 -39 -43 -23
4 -26 2 -22 -14 4 -15 0 -20 -13 -20 -11 0 -25 -13 -34 -33 -8 -17 -25 -36
-37 -42 -14 -6 -23 -18 -23 -32 0 -14 -6 -23 -15 -23 -8 0 -16 -6 -17 -12 0
-7 -2 -17 -3 -23 -2 -5 -3 -18 -4 -27 0 -10 -9 -18 -19 -18 -25 0 -42 -19 -42
-47 0 -18 -7 -25 -30 -29 -23 -5 -30 -12 -30 -31 0 -31 -39 -83 -62 -83 -13 0
-18 -8 -18 -25 0 -16 6 -25 15 -25 8 0 15 -7 15 -15 0 -8 -6 -15 -14 -15 -16
0 -26 -21 -26 -56 0 -26 -35 -68 -50 -59 -5 3 -12 -5 -16 -17 -3 -12 -15 -31
-26 -42 -11 -12 -27 -31 -35 -43 -9 -13 -22 -23 -29 -23 -8 0 -14 -7 -14 -15
0 -8 5 -15 11 -15 5 0 7 -4 4 -10 -3 -5 -14 -10 -25 -10 -21 0 -26 -10 -35
-74 -5 -30 -12 -46 -22 -46 -9 0 -12 -6 -9 -17 3 -10 -1 -29 -9 -43 -8 -14
-18 -32 -22 -40 -4 -8 -17 -26 -30 -40 -13 -14 -23 -33 -23 -42 0 -21 -25 -24
-34 -5 -3 6 -4 0 -1 -14 5 -27 -16 -46 -36 -33 -5 3 -9 2 -8 -3 1 -4 -3 -21
-9 -36 -7 -16 -12 -36 -12 -45 0 -28 -12 -62 -21 -62 -5 0 -9 7 -9 15 0 8 -4
15 -9 15 -12 0 -21 -26 -21 -60 0 -19 -6 -29 -20 -33 -12 -3 -20 -14 -20 -26
0 -11 -9 -25 -21 -31 -11 -6 -19 -19 -18 -28 4 -29 -11 -50 -31 -45 -16 4 -21
-2 -26 -37 -4 -24 -15 -46 -25 -53 -11 -7 -19 -17 -19 -24 0 -7 -7 -13 -15
-13 -8 0 -15 -4 -15 -10 0 -5 -6 -10 -14 -10 -10 0 -17 -16 -22 -46 -5 -33
-12 -48 -25 -51 -15 -4 -19 -15 -19 -48 0 -30 -6 -47 -21 -61 -31 -28 -49 -68
-49 -109 0 -28 -5 -37 -24 -44 -19 -8 -24 -19 -29 -62 -4 -28 -13 -59 -22 -69
-10 -11 -15 -38 -15 -87 0 -54 -4 -72 -15 -77 -8 -3 -15 -14 -15 -25 0 -11 -4
-23 -10 -26 -5 -3 -10 -19 -10 -34 0 -15 -7 -36 -15 -47 -8 -10 -15 -31 -15
-46 0 -17 -12 -39 -30 -58 -21 -22 -30 -40 -30 -64 0 -21 -6 -36 -15 -40 -8
-3 -15 -12 -15 -20 0 -7 7 -16 15 -20 8 -3 15 -14 15 -25 0 -10 7 -21 15 -25
17 -6 21 -46 5 -46 -6 0 -14 8 -17 18 -4 9 -13 23 -20 30 -7 7 -13 22 -13 33
0 10 -3 19 -7 19 -5 0 -17 21 -27 48 -10 26 -29 70 -42 98 -13 28 -33 86 -44
130 -12 43 -28 104 -36 134 -9 30 -19 83 -24 118 -5 35 -12 67 -15 72 -16 26
-29 281 -29 570 1 350 16 573 54 825 6 39 18 113 26 165 20 133 33 213 49 300
8 41 24 127 35 190 12 63 30 151 40 195 10 44 30 136 45 205 15 69 33 148 40
175 7 28 17 73 23 100 25 114 139 593 162 675 5 19 11 46 13 60 3 14 13 59 24
100 11 41 35 138 52 215 18 77 41 174 52 215 10 41 24 100 30 130 6 30 17 84
26 120 8 36 18 92 22 125 5 33 14 73 20 88 6 16 11 45 11 64 0 20 4 50 9 67
12 39 37 224 51 381 5 66 15 156 21 200 6 44 15 105 19 135 12 88 58 269 71
285 5 5 9 20 9 34 0 28 48 166 88 251 14 30 30 66 35 80 17 42 42 95 48 100 3
3 13 19 21 35 9 17 29 55 46 85 30 52 30 56 15 80 -12 17 -16 49 -17 111 0 77
2 91 26 126 14 22 43 48 65 59 46 23 132 24 184 1 35 -14 38 -14 64 9 16 13
32 24 36 24 4 0 14 6 21 13 19 17 41 30 128 75 72 38 123 56 240 86 79 21 313
21 398 0z m3287 -184 c-5 -8 -11 -8 -17 -2 -6 6 -7 16 -3 22 5 8 11 8 17 2 6
-6 7 -16 3 -22z m71 -42 c1 -10 -2 -20 -7 -24 -17 -10 -49 7 -49 27 0 16 6 20
27 17 16 -2 27 -10 29 -20z m2441 -490 c-3 -7 -5 -2 -5 12 0 14 2 19 5 13 2
-7 2 -19 0 -25z m-30 -200 c-3 -7 -5 -2 -5 12 0 14 2 19 5 13 2 -7 2 -19 0
-25z m1401 -807 c28 -13 52 -27 52 -30 0 -4 20 -22 45 -41 25 -19 45 -38 45
-44 0 -5 10 -21 23 -35 35 -39 77 -161 77 -226 0 -88 -58 -229 -119 -289 l-48
-48 -40 21 c-23 11 -43 26 -46 34 -3 7 6 46 19 86 28 85 30 137 9 208 -31 103
-108 174 -217 200 -76 17 -157 5 -228 -35 -49 -27 -120 -99 -120 -120 0 -8 -6
-12 -12 -9 -16 5 -11 54 8 84 8 12 14 30 14 40 0 10 14 33 30 52 17 18 30 38
30 42 0 13 118 99 160 117 81 34 231 31 318 -7z m-130 -261 c25 -38 28 -86 8
-135 -26 -61 -136 -73 -185 -21 -37 39 -44 93 -20 143 18 36 28 45 67 57 59
17 97 4 130 -44z m-13148 -525 c7 -8 17 -15 22 -15 22 0 385 -273 573 -430 50
-42 115 -94 145 -117 30 -22 71 -55 90 -72 19 -17 89 -73 155 -123 66 -50 122
-94 125 -98 3 -3 50 -38 105 -78 55 -39 105 -75 110 -79 30 -24 249 -165 305
-197 79 -45 70 -41 227 -122 134 -69 158 -84 132 -84 -50 0 -268 40 -339 62
-127 39 -385 162 -482 230 -14 10 -28 18 -31 18 -20 0 -242 165 -424 316 -160
133 -583 563 -683 694 -14 18 -37 47 -51 64 -14 17 -31 41 -37 53 -12 21 -11
21 17 7 16 -8 34 -21 41 -29z m2256 -2540 c-16 -14 -32 -25 -36 -25 -3 0 -15
-9 -27 -19 -61 -57 -352 -190 -462 -211 -29 -5 -57 -13 -63 -16 -5 -4 -35 -10
-66 -15 -32 -4 -82 -13 -112 -19 -90 -18 -402 -15 -490 5 -80 18 -142 44 -134
57 3 4 68 8 146 8 129 0 298 15 458 41 87 14 329 67 360 79 14 5 72 23 130 41
58 17 109 36 115 40 5 5 16 9 25 9 9 0 43 11 75 24 33 13 71 25 85 25 l25 1
-29 -25z m-67 -1472 c-23 -38 -84 -132 -135 -210 -52 -78 -94 -146 -94 -151 0
-6 -3 -12 -8 -14 -7 -3 -76 -106 -184 -273 -62 -96 -142 -228 -225 -370 -39
-66 -99 -167 -133 -225 -35 -58 -81 -139 -103 -180 -22 -41 -48 -86 -57 -100
-9 -14 -30 -50 -47 -80 -16 -30 -67 -118 -111 -194 -45 -76 -82 -142 -82 -146
0 -13 -38 -41 -44 -32 -10 17 92 381 134 477 10 23 29 68 60 145 106 260 383
721 535 889 28 31 90 101 137 156 127 148 341 355 367 355 6 0 11 5 11 10 0 6
4 10 10 10 5 0 -9 -30 -31 -67z m1991 -1076 c0 -18 -2 -19 -10 -7 -13 20 -13
43 0 35 6 -3 10 -16 10 -28z m1565 -281 c-25 -12 -27 -15 -12 -21 9 -4 26 -5
36 -2 28 7 64 -29 57 -58 -4 -16 2 -31 21 -51 21 -23 26 -38 26 -81 0 -69 -30
-102 -87 -95 -33 4 -36 6 -23 21 9 10 11 26 7 46 l-7 30 -14 -33 c-14 -34 -32
-37 -38 -6 -2 10 -14 29 -27 41 -27 25 -33 73 -9 73 19 0 28 37 23 100 l-3 50
40 0 40 -1 -30 -13z m-75 -67 c0 -5 -7 -9 -15 -9 -15 0 -20 12 -9 23 8 8 24
-1 24 -14z m-442 -600 c38 -38 40 -49 8 -49 -21 0 -24 -5 -23 -27 2 -26 0 -27
-40 -24 -26 1 -43 -2 -43 -8 0 -6 -4 -11 -10 -11 -17 0 -11 32 8 46 13 10 14
15 5 25 -10 10 -14 8 -19 -7 -4 -10 -12 -22 -18 -26 -15 -10 -16 -38 -1 -38 8
0 18 -7 23 -16 6 -11 11 -13 16 -5 9 14 66 15 66 1 0 -5 -11 -12 -25 -16 -13
-3 -27 -15 -30 -25 -4 -10 -9 -19 -13 -19 -12 0 -62 68 -62 85 0 9 -5 25 -10
35 -7 13 -7 21 0 25 5 3 10 15 10 25 0 37 31 60 80 60 38 0 52 -5 78 -31z m62
-86 c-1 -28 -9 -47 -30 -70 -16 -18 -32 -33 -34 -33 -2 0 -6 11 -8 25 -4 18 1
29 18 40 14 9 24 25 24 39 0 12 3 26 7 29 15 16 23 5 23 -30z m-100 -113 c0
-11 -7 -20 -15 -20 -17 0 -18 2 -9 24 9 23 24 20 24 -4z m730 -1650 l25 -20
-35 0 c-20 0 -40 4 -45 9 -6 5 -25 12 -42 16 -25 5 -33 3 -33 -8 0 -21 86 -49
146 -48 49 2 53 0 73 -34 22 -38 30 -145 11 -145 -5 0 -10 -7 -10 -15 0 -9 -7
-18 -15 -21 -8 -4 -15 -12 -15 -20 0 -8 -10 -14 -25 -14 -14 0 -28 -7 -31 -15
-5 -11 -22 -15 -70 -15 -36 0 -64 4 -64 10 0 6 -6 10 -13 10 -20 0 -72 61 -90
108 -32 81 -16 154 43 189 16 9 30 21 30 25 0 4 30 8 68 8 51 0 73 -5 92 -20z
m2777 -276 c-3 -3 -12 -4 -19 -1 -8 3 -5 6 6 6 11 1 17 -2 13 -5z m35 -22 c5
-12 199 -132 276 -171 102 -51 331 -148 382 -160 25 -7 54 -16 65 -21 35 -15
186 -49 325 -72 177 -29 570 -31 715 -4 296 56 333 67 515 153 41 20 95 45
120 56 25 11 78 42 118 69 41 27 76 48 78 45 5 -5 -56 -68 -132 -137 -28 -25
-72 -65 -97 -89 -26 -24 -78 -65 -115 -92 -37 -26 -82 -61 -101 -76 -18 -15
-68 -48 -110 -74 -42 -26 -91 -57 -109 -68 -18 -12 -39 -21 -46 -21 -7 0 -25
-9 -39 -20 -14 -11 -39 -23 -56 -26 -17 -4 -34 -11 -37 -15 -3 -5 -14 -9 -25
-9 -10 0 -19 -4 -19 -10 0 -19 76 -6 193 35 27 9 51 14 54 11 3 -3 23 2 45 11
28 11 42 13 50 5 8 -8 3 -13 -16 -18 -14 -3 -26 -10 -26 -15 0 -5 -5 -9 -10
-9 -6 0 -33 -11 -62 -25 -28 -14 -59 -25 -68 -25 -9 0 -25 -7 -36 -15 -10 -8
-33 -15 -50 -15 -16 0 -35 -5 -42 -12 -12 -12 -43 -18 -207 -39 -93 -12 -455
-3 -469 11 -6 6 -24 10 -40 10 -17 1 -42 7 -56 15 -14 8 -45 15 -70 15 -33 0
-41 3 -30 10 22 14 69 12 115 -5 22 -8 74 -15 115 -15 41 -1 96 -5 121 -9 52
-8 69 -5 69 15 0 10 -12 14 -41 14 -22 0 -70 8 -105 17 -53 14 -67 15 -73 4
-9 -14 -52 -11 -52 4 0 6 10 12 22 15 15 4 -1 12 -57 29 -44 12 -122 43 -174
68 -86 41 -103 46 -175 48 -85 2 -120 16 -196 78 -19 15 -63 52 -99 81 -86 70
-122 122 -128 186 -4 39 -11 55 -31 71 -49 38 -201 183 -201 191 0 10 17 10
22 0z m-7432 -209 c0 -20 -3 -24 -11 -16 -7 7 -9 19 -6 27 10 24 17 19 17 -11z
m17 -45 c-3 -8 -6 -5 -6 6 -1 11 2 17 5 13 3 -3 4 -12 1 -19z m9573 -378 c0
-5 -7 -10 -15 -10 -8 0 -15 5 -15 10 0 6 7 10 15 10 8 0 15 -4 15 -10z m-1308
-122 c-6 -6 -16 -7 -22 -3 -9 6 -9 9 1 16 17 10 34 0 21 -13z"/>
<path d="M13280 16845 c-10 -13 -9 -15 9 -15 12 0 21 6 21 15 0 8 -4 15 -9 15
-5 0 -14 -7 -21 -15z"/>
<path d="M13280 16760 c0 -5 5 -10 10 -10 6 0 10 5 10 10 0 6 -4 10 -10 10 -5
0 -10 -4 -10 -10z"/>
<path d="M13450 16692 c-14 -15 -36 -33 -50 -39 l-25 -12 28 0 c15 -1 27 4 27
9 0 6 6 10 13 10 6 0 24 7 40 14 15 8 27 11 27 5 0 -5 10 -9 22 -9 l21 0 -23
25 c-30 32 -50 32 -80 -3z"/>
<path d="M13225 16680 c-3 -5 3 -10 15 -10 12 0 18 5 15 10 -3 6 -10 10 -15
10 -5 0 -12 -4 -15 -10z"/>
<path d="M13128 16648 c-21 -7 -28 -16 -28 -36 1 -26 1 -26 15 -8 8 11 15 23
15 28 0 4 9 8 20 8 11 0 20 5 20 10 0 12 -6 12 -42 -2z"/>
<path d="M13280 16651 c0 -6 5 -13 10 -16 6 -3 10 1 10 9 0 9 -4 16 -10 16 -5
0 -10 -4 -10 -9z"/>
<path d="M13076 16571 c-4 -7 -5 -15 -2 -18 9 -9 19 4 14 18 -4 11 -6 11 -12
0z"/>
<path d="M13198 16543 c7 -3 16 -2 19 1 4 3 -2 6 -13 5 -11 0 -14 -3 -6 -6z"/>
<path d="M13128 16513 c-16 -8 -28 -18 -28 -24 0 -5 -7 -9 -15 -9 -8 0 -15 -9
-15 -20 0 -11 3 -20 8 -20 4 0 13 9 20 20 7 11 19 20 27 20 8 0 15 7 15 15 0
8 9 15 20 15 11 0 20 5 20 10 0 13 -19 11 -52 -7z"/>
<path d="M13345 15311 c-202 -41 -382 -210 -437 -411 -21 -78 -27 -222 -12
-285 59 -241 236 -410 467 -446 176 -27 331 22 470 150 115 106 175 233 184
389 7 112 -10 188 -69 309 -61 126 -174 225 -314 274 -65 23 -221 33 -289 20z
m235 -77 c165 -56 249 -129 321 -277 21 -45 39 -92 39 -107 0 -14 4 -40 9 -57
12 -41 -3 -160 -29 -230 -55 -149 -181 -264 -340 -311 -51 -15 -164 -25 -191
-17 -22 7 -22 8 -4 21 10 8 29 14 42 14 50 0 158 87 210 168 48 75 66 149 59
245 -12 174 -125 293 -308 328 -58 11 -75 10 -135 -6 -66 -17 -135 -50 -175
-84 -29 -24 -84 -102 -95 -136 -9 -26 -12 -28 -18 -11 -18 43 58 245 113 301
75 76 133 114 242 156 59 22 199 24 260 3z m-121 -320 c61 -31 90 -80 91 -151
1 -161 -201 -225 -298 -94 -18 24 -22 44 -22 97 0 80 23 119 92 153 56 27 73
27 137 -5z"/>
<path d="M10640 15670 c0 -5 5 -10 10 -10 6 0 10 5 10 10 0 6 -4 10 -10 10 -5
0 -10 -4 -10 -10z"/>
<path d="M7551 9704 c0 -11 3 -14 6 -6 3 7 2 16 -1 19 -3 4 -6 -2 -5 -13z"/>
<path d="M7580 9540 c0 -11 2 -20 4 -20 2 0 6 9 9 20 3 11 1 20 -4 20 -5 0 -9
-9 -9 -20z"/>
<path d="M7545 9457 c-5 -17 -3 -33 3 -39 16 -16 25 12 13 43 l-9 24 -7 -28z"/>
<path d="M7522 9380 c0 -14 2 -19 5 -12 2 6 2 18 0 25 -3 6 -5 1 -5 -13z"/>
<path d="M9233 8692 c-9 -6 -10 -17 -2 -45 12 -45 17 -46 30 -8 6 16 17 28 26
27 9 0 18 5 20 12 3 7 -4 12 -15 12 -11 0 -26 2 -34 5 -7 3 -19 1 -25 -3z"/>
<path d="M9303 8590 c-27 -11 -29 -25 -8 -46 8 -9 15 -31 15 -50 0 -27 4 -35
16 -32 11 2 16 20 19 71 4 71 1 74 -42 57z"/>
<path d="M9221 8553 c0 -16 3 -22 6 -15 2 6 10 9 16 5 8 -5 8 -2 0 9 -7 8 -10
18 -6 21 3 4 1 7 -5 7 -7 0 -12 -12 -11 -27z"/>
<path d="M8627 8084 c-13 -13 5 -31 29 -26 20 4 24 1 24 -22 0 -30 14 -34 28
-9 8 13 5 21 -12 34 -25 20 -60 32 -69 23z"/>
<path d="M9253 6183 c-17 -6 -17 -53 0 -53 16 0 50 -57 42 -70 -3 -6 -15 -10
-26 -10 -21 0 -24 -16 -9 -40 9 -13 12 -13 24 3 8 11 35 30 61 44 44 23 48 23
72 8 21 -14 24 -22 20 -56 -2 -22 -8 -43 -11 -47 -4 -3 -5 8 -1 26 4 26 2 32
-12 32 -9 0 -24 -7 -34 -15 -14 -13 -15 -20 -5 -40 6 -14 17 -25 24 -25 19 0
73 62 68 77 -3 7 -2 12 2 12 38 -6 52 2 52 30 0 17 -4 33 -10 36 -5 3 -10 15
-10 26 0 27 -24 34 -62 18 -24 -10 -33 -10 -36 -1 -4 14 -72 17 -72 3 0 -14
-43 -21 -57 -9 -11 9 -12 13 -1 19 7 5 20 6 30 3 28 -8 31 15 3 26 -28 11 -33
11 -52 3z"/>
<path d="M13858 5161 c-21 -3 -47 -14 -58 -23 -11 -10 -29 -18 -40 -18 -11 0
-20 -5 -20 -11 0 -13 53 -2 58 12 2 5 17 9 33 9 16 0 29 5 29 10 0 6 18 10 40
10 22 0 40 5 40 10 0 11 -22 11 -82 1z"/>
<path d="M8204 22039 c-3 -6 -1 -16 5 -22 8 -8 11 -5 11 11 0 24 -5 28 -16 11z"/>
<path d="M8260 22036 c0 -8 -7 -22 -16 -30 -18 -19 -5 -21 31 -4 28 13 30 19
13 36 -16 16 -28 15 -28 -2z"/>
<path d="M8336 21921 c-4 -5 -2 -12 3 -15 5 -4 12 -2 15 3 4 5 2 12 -3 15 -5
4 -12 2 -15 -3z"/>
<path d="M8501 21904 c0 -11 3 -14 6 -6 3 7 2 16 -1 19 -3 4 -6 -2 -5 -13z"/>
<path d="M8765 21800 c3 -5 8 -10 11 -10 2 0 4 5 4 10 0 6 -5 10 -11 10 -5 0
-7 -4 -4 -10z"/>
<path d="M8500 21779 c0 -5 5 -7 10 -4 6 3 10 8 10 11 0 2 -4 4 -10 4 -5 0
-10 -5 -10 -11z"/>
<path d="M8570 21745 c0 -8 5 -15 10 -15 6 0 10 7 10 15 0 8 -4 15 -10 15 -5
0 -10 -7 -10 -15z"/>
<path d="M8975 21665 c-5 -11 -13 -23 -19 -27 -6 -4 -7 -10 -3 -14 8 -9 57 15
57 28 0 5 -4 7 -9 3 -5 -3 -11 3 -14 12 -3 16 -5 16 -12 -2z"/>
<path d="M8570 21629 c7 -11 14 -18 17 -15 8 8 -5 36 -17 36 -7 0 -7 -6 0 -21z"/>
<path d="M9045 21620 c3 -5 11 -10 16 -10 6 0 7 5 4 10 -3 6 -11 10 -16 10 -6
0 -7 -4 -4 -10z"/>
<path d="M8900 21590 c0 -5 7 -7 15 -4 8 4 15 8 15 10 0 2 -7 4 -15 4 -8 0
-15 -4 -15 -10z"/>
<path d="M8645 21520 c-3 -5 -1 -10 4 -10 6 0 11 5 11 10 0 6 -2 10 -4 10 -3
0 -8 -4 -11 -10z"/>
<path d="M8710 21483 c0 -12 5 -25 11 -28 19 -12 22 3 5 27 l-16 22 0 -21z"/>
<path d="M10380 20324 c0 -8 5 -12 10 -9 6 3 10 10 10 16 0 5 -4 9 -10 9 -5 0
-10 -7 -10 -16z"/>
<path d="M15666 17669 c-55 -13 -97 -48 -129 -107 -46 -85 -47 -250 -2 -472 9
-47 21 -92 26 -101 12 -23 74 -36 229 -49 74 -6 155 -15 180 -20 25 -5 77 -12
115 -15 39 -4 75 -11 81 -16 6 -5 33 -11 60 -13 27 -1 67 -8 89 -14 22 -6 72
-19 110 -28 69 -16 162 -49 240 -84 22 -10 51 -21 65 -25 48 -14 146 -68 260
-144 88 -58 150 -110 263 -223 82 -81 155 -148 163 -148 13 0 14 35 12 228 -3
211 -5 231 -27 287 -35 87 -123 229 -194 313 -67 80 -279 240 -383 289 -19 9
-34 20 -34 24 0 4 -17 13 -37 19 -21 7 -49 19 -63 28 -29 19 -117 58 -175 77
-22 8 -110 40 -195 73 -86 33 -172 63 -190 67 -19 3 -64 15 -100 25 -122 35
-284 48 -364 29z"/>
<path d="M16076 16355 c-15 -8 -52 -15 -81 -15 -30 0 -66 -7 -82 -14 -15 -8
-35 -18 -43 -21 -37 -14 -170 -106 -170 -116 0 -5 -11 -9 -25 -9 -14 0 -28 -7
-32 -15 -7 -19 -5 -20 25 -29 18 -6 22 -4 22 14 0 11 7 23 15 26 17 7 95 -35
95 -52 0 -6 7 -14 15 -18 18 -6 45 2 45 15 0 5 16 1 35 -8 37 -18 45 -42 20
-63 -26 -22 -18 -40 18 -40 18 0 37 4 43 9 10 10 71 17 239 27 293 17 602
-102 826 -318 192 -185 302 -392 378 -713 7 -32 9 -12 10 97 1 75 -3 139 -8
142 -5 3 -12 23 -15 43 -23 134 -44 195 -89 262 -17 27 -44 71 -59 97 -62 111
-86 147 -123 191 -22 26 -51 63 -66 82 -44 60 -139 144 -237 209 -51 34 -95
62 -97 62 -3 0 -23 13 -45 29 -22 16 -61 34 -86 40 -26 7 -71 25 -100 42 -46
25 -63 29 -129 29 -45 0 -90 6 -112 15 -46 19 -150 19 -187 0z m-245 -165 c5
0 9 -7 9 -15 0 -8 -9 -15 -20 -15 -11 0 -20 2 -20 4 0 2 -3 12 -7 22 -5 14 -3
16 11 11 10 -4 22 -7 27 -7z"/>
<path d="M15760 16090 c0 -5 6 -10 14 -10 8 0 18 5 21 10 3 6 -3 10 -14 10
-12 0 -21 -4 -21 -10z"/>
<path d="M15640 16080 c0 -5 5 -10 11 -10 5 0 7 5 4 10 -3 6 -8 10 -11 10 -2
0 -4 -4 -4 -10z"/>
<path d="M15813 16003 c-27 -10 -11 -23 27 -23 22 0 40 5 40 10 0 6 -6 10 -14
10 -8 0 -20 2 -28 4 -7 3 -19 2 -25 -1z"/>
<path d="M15745 15960 c-8 -13 5 -13 25 0 13 8 13 10 -2 10 -9 0 -20 -4 -23
-10z"/>
<path d="M15708 15933 c7 -3 16 -2 19 1 4 3 -2 6 -13 5 -11 0 -14 -3 -6 -6z"/>
<path d="M7862 15678 c2 -13 8 -23 13 -23 6 0 11 10 13 23 2 15 -2 22 -13 22
-11 0 -15 -7 -13 -22z"/>
<path d="M16835 13080 c-3 -5 -34 -10 -68 -10 -55 0 -107 -7 -357 -50 -36 -6
-73 -15 -82 -21 -10 -5 -41 -9 -70 -9 -29 0 -89 -6 -133 -14 -44 -8 -114 -20
-155 -26 -41 -6 -95 -16 -119 -23 -48 -11 -238 -13 -339 -2 -49 5 -71 3 -99
-10 -27 -13 -61 -17 -157 -16 -111 1 -124 0 -141 -19 -13 -15 -31 -20 -69 -20
-28 -1 -71 -6 -96 -11 -39 -9 -143 -16 -535 -35 -134 -6 -726 -5 -737 2 -6 4
-47 10 -92 14 -86 8 -235 36 -403 76 -118 28 -113 27 -113 14 0 -5 8 -10 18
-10 10 0 22 -4 27 -9 6 -5 26 -14 45 -19 19 -6 49 -15 65 -21 17 -5 57 -17 90
-26 33 -9 74 -21 90 -25 17 -5 71 -16 120 -25 50 -9 122 -22 160 -30 146 -28
469 -55 730 -61 266 -6 744 21 1075 61 63 8 133 16 155 19 59 7 368 54 460 70
44 8 109 19 145 25 36 6 83 15 105 20 22 6 108 22 190 36 83 15 168 33 190 40
22 8 54 16 72 20 47 9 113 44 120 62 12 31 -74 62 -92 33z m-1382 -187 c-7 -2
-19 -2 -25 0 -7 3 -2 5 12 5 14 0 19 -2 13 -5z m-147 -13 c8 0 14 -4 14 -10 0
-6 -31 -10 -72 -10 -44 0 -68 4 -62 9 10 10 71 20 92 14 8 -1 20 -3 28 -3z"/>
<path d="M15947 12993 c18 -2 50 -2 70 0 21 2 7 4 -32 4 -38 0 -55 -2 -38 -4z"/>
<path d="M14570 12860 c0 -13 80 -13 100 0 11 7 -2 10 -42 10 -32 0 -58 -4
-58 -10z"/>
<path d="M14813 12863 c9 -2 23 -2 30 0 6 3 -1 5 -18 5 -16 0 -22 -2 -12 -5z"/>
<path d="M4720 5515 c-12 -33 -13 -45 -1 -45 16 0 42 32 39 48 -5 26 -27 25
-38 -3z"/>
<path d="M8815 5360 c-8 -13 4 -32 16 -25 12 8 12 35 0 35 -6 0 -13 -4 -16
-10z"/>
</g>
</svg>
