<?xml version="1.0" encoding="UTF-8"?>
<svg xmlns="http://www.w3.org/2000/svg" viewBox="0 0 512 320">
  <defs>
    <linearGradient id="shine" x1="0" x2="0" y1="0" y2="1">
      <stop offset="0%" stop-color="#ffb347"/>
      <stop offset="100%" stop-color="#f97316"/>
    </linearGradient>
  </defs>
  <!-- Body -->
  <g fill="url(#shine)" stroke="#111827" stroke-width="10" stroke-linecap="round" stroke-linejoin="round">
    <ellipse cx="280" cy="160" rx="180" ry="120"/>
    <!-- Tail -->
    <path d="M88 120c-36 8-60 16-72 24 12 8 36 16 72 24 12-12 12-36 0-48z" fill="url(#shine)"/>
    <path d="M88 120c-36 8-60 16-72 24 12 8 36 16 72 24" fill="none"/>
  </g>

  <!-- Fins -->
  <g fill="url(#shine)" stroke="#111827" stroke-width="10" stroke-linecap="round" stroke-linejoin="round">
    <path d="M300 42c20-16 40-24 60-26-4 18-16 34-36 48"/>
    <path d="M300 278c20 16 40 24 60 26-4-18-16-34-36-48"/>
  </g>

  <!-- White stripes -->
  <g fill="#ffffff" stroke="#111827" stroke-width="10">
    <path d="M190 46c-30 18-48 48-48 114s18 96 48 114c12-12 24-28 30-54 8-30 8-90 0-120-6-24-18-40-30-54z"/>
    <path d="M270 40c-18 18-30 46-30 120s12 102 30 120c22-6 42-18 58-36 18-20 28-46 28-84s-10-64-28-84c-16-18-36-30-58-36z"/>
  </g>

  <!-- Eye left -->
  <circle cx="320" cy="140" r="42" fill="#ffffff" stroke="#111827" stroke-width="10"/>
  <circle cx="320" cy="140" r="22" fill="#111827"/>
  <circle cx="330" cy="130" r="8" fill="#ffffff"/>

  <!-- Eye right -->
  <circle cx="400" cy="160" r="48" fill="#ffffff" stroke="#111827" stroke-width="10"/>
  <circle cx="400" cy="160" r="26" fill="#111827"/>
  <circle cx="412" cy="148" r="9" fill="#ffffff"/>

  <!-- Smile -->
  <path d="M348 206c18 16 46 16 66 0" fill="none" stroke="#111827" stroke-width="10" stroke-linecap="round"/>

  <!-- Belly fin -->
  <g fill="url(#shine)" stroke="#111827" stroke-width="8" stroke-linecap="round" stroke-linejoin="round">
    <path d="M260 232c-10 8-18 18-22 32 12 2 26-2 40-10"/>
  </g>
</svg>


