<svg xmlns="http://www.w3.org/2000/svg" viewBox="0 0 256 128" width="256" height="128">
  <defs>
    <linearGradient id="g1" x1="0" y1="0" x2="1" y2="0">
      <stop offset="0" stop-color="#f59e0b"/>
      <stop offset="1" stop-color="#fbbf24"/>
    </linearGradient>
  </defs>
  <!-- Body -->
  <g stroke="#0f172a" stroke-width="4" stroke-linejoin="round" fill="none">
    <path d="M20,64 C40,20 120,8 170,26 C210,40 230,64 230,64 C230,64 210,88 170,102 C120,120 40,108 20,64 Z" fill="url(#g1)"/>
    <!-- White stripes -->
    <path d="M60,24 C70,26 78,30 86,36 C94,42 98,49 100,56 C96,59 90,61 84,62 C78,63 70,62 62,60 C56,46 56,34 60,24 Z" fill="#ffffff"/>
    <path d="M128,22 C142,26 154,34 160,44 C162,52 162,60 160,68 C150,72 140,74 130,72 C126,64 124,56 124,48 C124,40 126,30 128,22 Z" fill="#ffffff"/>
    <!-- Tail -->
    <path d="M230,64 C244,50 252,46 252,46 C248,58 248,70 252,82 C252,82 244,78 230,64 Z" fill="url(#g1)"/>
  </g>
  <!-- Eye -->
  <circle cx="56" cy="62" r="10" fill="#ffffff" stroke="#0f172a" stroke-width="4"/>
  <circle cx="56" cy="62" r="5" fill="#0f172a"/>
  <!-- Mouth -->
  <path d="M48,80 C54,82 60,82 66,80" stroke="#0f172a" stroke-width="4" stroke-linecap="round"/>
</svg>


